<?xml version="1.0" encoding="utf-8"?>
<!-- Generator: Adobe Illustrator 25.1.0, SVG Export Plug-In . SVG Version: 6.00 Build 0)  -->
<svg version="1.1" id="Layer_1" xmlns="http://www.w3.org/2000/svg" xmlns:xlink="http://www.w3.org/1999/xlink" x="0px" y="0px"
	 viewBox="0 0 720 540" style="enable-background:new 0 0 720 540;" xml:space="preserve">
<style type="text/css">
	.st0{display:none;fill:#41393D;}
	.st1{font-family:'Athelas-Regular';}
	.st2{font-size:12px;}
	.st3{display:none;fill:#FFFFFF;}
	.st4{display:none;}
	.st5{display:inline;fill:#41393D;}
	.st6{font-size:36px;}
	.st7{font-size:14px;}
	.st8{letter-spacing:-1;}
	.st9{clip-path:url(#SVGID_2_);fill:#BE1E2D;}
	.st10{fill:#8A8C8F;}
	.st11{font-family:'MajestiBanner-Bold';}
	.st12{font-size:134.3055px;}
</style>
<text transform="matrix(1 0 0 1 36 522.5596)" class="st0 st1 st2">5</text>
<rect x="486" y="36" class="st3" width="198" height="74"/>
<text transform="matrix(1 0 0 1 73 147.6797)" class="st4"><tspan x="0" y="0" class="st5 st1 st6">Lo</tspan><tspan x="38.7" y="0" class="st5 st1 st6">g</tspan><tspan x="55.4" y="0" class="st5 st1 st6">o</tspan></text>
<text transform="matrix(1 0 0 1 73 188.9189)" class="st4"><tspan x="0" y="0" class="st5 st1 st7">Our l</tspan><tspan x="29.16" y="0" class="st5 st1 st7">o</tspan><tspan x="36.12" y="0" class="st5 st1 st7">g</tspan><tspan x="42.35" y="0" class="st5 st1 st7">o </tspan><tspan x="52" y="0" class="st5 st1 st7">s</tspan><tspan x="57.13" y="0" class="st5 st1 st7">peaks </tspan><tspan x="91.77" y="0" class="st5 st1 st7">t</tspan><tspan x="95.66" y="0" class="st5 st1 st7">o th</tspan><tspan x="117.05" y="0" class="st5 st1 st7">e</tspan><tspan x="123.28" y="0" class="st5 st1 st7"> h</tspan><tspan x="133.67" y="0" class="st5 st1 st7">i</tspan><tspan x="137.21" y="0" class="st5 st1 st7">gh-</tspan><tspan x="155.57" y="0" class="st5 st1 st7">e</tspan><tspan x="161.8" y="0" class="st5 st1 st7">nd b</tspan><tspan x="186.84" y="0" class="st5 st1 st7">r</tspan><tspan x="191.6" y="0" class="st5 st1 st7">an</tspan><tspan x="205.6" y="0" class="st5 st1 st7">d </tspan></text>
<text transform="matrix(1 0 0 1 288.1938 188.9189)" class="st0 st1 st7"> </text>
<text transform="matrix(1 0 0 1 73 205.7188)" class="st4"><tspan x="0" y="0" class="st5 st1 st7">in wh</tspan><tspan x="31.43" y="0" class="st5 st1 st7">i</tspan><tspan x="34.97" y="0" class="st5 st1 st7">ch </tspan><tspan x="51.18" y="0" class="st5 st1 st7">w</tspan><tspan x="60.67" y="0" class="st5 st1 st7">e spec</tspan><tspan x="94.2" y="0" class="st5 st1 st7">i</tspan><tspan x="97.75" y="0" class="st5 st1 st7">ali</tspan><tspan x="111.33" y="0" class="st5 st1 st7">z</tspan><tspan x="116.8" y="0" class="st5 st1 st7">e</tspan><tspan x="123.04" y="0" class="st5 st1 st7">.</tspan><tspan x="125.77" y="0" class="st5 st1 st7"> </tspan><tspan x="128.45" y="0" class="st5 st1 st7">T</tspan><tspan x="136.96" y="0" class="st5 st1 st7">O</tspan><tspan x="146.55" y="0" class="st5 st1 st7">W</tspan><tspan x="160.12" y="0" class="st5 st1 st7">N</tspan><tspan x="169.93" y="0" class="st5 st1 st7"> br</tspan><tspan x="184.99" y="0" class="st5 st1 st7">i</tspan><tspan x="188.53" y="0" class="st5 st1 st7">n</tspan><tspan x="196.18" y="0" class="st5 st1 st7">g</tspan><tspan x="202.55" y="0" class="st5 st1 st7">s </tspan></text>
<text transform="matrix(1 0 0 1 73 222.519)" class="st4"><tspan x="0" y="0" class="st5 st1 st7">fortune and cuisine f</tspan><tspan x="114.55" y="0" class="st5 st1 st7">r</tspan><tspan x="119.22" y="0" class="st5 st1 st7">om Chin</tspan><tspan x="168.26" y="0" class="st5 st1 st7">a</tspan><tspan x="174.55" y="0" class="st5 st1 st7">t</tspan><tspan x="178.44" y="0" class="st5 st1 st7">o</tspan><tspan x="185.12" y="0" class="st5 st1 st7">wn </tspan><tspan x="205.28" y="0" class="st5 st1 st7">t</tspan><tspan x="209.17" y="0" class="st5 st1 st7">o </tspan></text>
<text transform="matrix(1 0 0 1 73 239.3188)" class="st4"><tspan x="0" y="0" class="st5 st1 st7">y</tspan><tspan x="6.19" y="0" class="st5 st1 st7">o</tspan><tspan x="13.15" y="0" class="st5 st1 st7">ur </tspan><tspan x="28.42" y="0" class="st5 st1 st7">t</tspan><tspan x="32.31" y="0" class="st5 st1 st7">o</tspan><tspan x="39" y="0" class="st5 st1 st7">wn</tspan><tspan x="56.49" y="0" class="st5 st1 st7">. </tspan></text>
<text transform="matrix(1 0 0 1 73 272.9189)" class="st4"><tspan x="0" y="0" class="st5 st1 st7">The </tspan><tspan x="25.42" y="0" class="st5 st1 st7">s</tspan><tspan x="30.35" y="0" class="st5 st1 st7">ymb</tspan><tspan x="55.62" y="0" class="st5 st1 st7">o</tspan><tspan x="62.58" y="0" class="st5 st1 st7">l for fortune </tspan><tspan x="131.89" y="0" class="st5 st1 st7">c</tspan><tspan x="137.58" y="0" class="st5 st1 st7">ome</tspan><tspan x="162.17" y="0" class="st5 st1 st7">s</tspan><tspan x="167.31" y="0" class="st5 st1 st7"> </tspan><tspan x="169.99" y="0" class="st5 st1 st7">a</tspan><tspan x="176.27" y="0" class="st5 st1 st7">t the f</tspan><tspan x="207.7" y="0" class="st5 st1 st7">r</tspan><tspan x="212.38" y="0" class="st5 st1 st7">o</tspan><tspan x="219.35" y="0" class="st5 st1 st7">n</tspan><tspan x="226.85" y="0" class="st5 st1 st7">t </tspan></text>
<text transform="matrix(1 0 0 1 73 289.7188)" class="st4"><tspan x="0" y="0" class="st5 st1 st7">end of our lo</tspan><tspan x="70.53" y="0" class="st5 st1 st7">g</tspan><tspan x="76.76" y="0" class="st5 st1 st7">o as </tspan><tspan x="100.59" y="0" class="st5 st1 st7">w</tspan><tspan x="110.08" y="0" class="st5 st1 st7">e</tspan><tspan x="116.31" y="0" class="st5 st1 st7"> </tspan><tspan x="118.98" y="0" class="st5 st1 st7">w</tspan><tspan x="128.46" y="0" class="st5 st1 st7">a</tspan><tspan x="134.82" y="0" class="st5 st1 st7">n</tspan><tspan x="142.32" y="0" class="st5 st1 st7">t all wh</tspan><tspan x="182.95" y="0" class="st5 st1 st7">o</tspan><tspan x="189.91" y="0" class="st5 st1 st7"> e</tspan><tspan x="198.82" y="0" class="st5 st1 st7">nt</tspan><tspan x="210.22" y="0" class="st5 st1 st7">e</tspan><tspan x="216.46" y="0" class="st5 st1 st7">r </tspan></text>
<text transform="matrix(1 0 0 1 73 306.5186)" class="st4"><tspan x="0" y="0" class="st5 st1 st7">our </tspan><tspan x="22.25" y="0" class="st5 st1 st7">r</tspan><tspan x="26.92" y="0" class="st5 st1 st7">est</tspan><tspan x="42.35" y="0" class="st5 st1 st7">a</tspan><tspan x="48.57" y="0" class="st5 st1 st7">u</tspan><tspan x="56.12" y="0" class="st5 st1 st7">r</tspan><tspan x="60.89" y="0" class="st5 st1 st7">a</tspan><tspan x="67.24" y="0" class="st5 st1 st7">n</tspan><tspan x="74.74" y="0" class="st5 st1 st7">t </tspan><tspan x="81.45" y="0" class="st5 st1 st7">t</tspan><tspan x="85.34" y="0" class="st5 st1 st7">o be </tspan><tspan x="111.26" y="0" class="st5 st1 st7">g</tspan><tspan x="117.75" y="0" class="st5 st1 st7">r</tspan><tspan x="122.44" y="0" class="st5 st1 st7">ee</tspan><tspan x="134.9" y="0" class="st5 st1 st7">t</tspan><tspan x="138.79" y="0" class="st5 st1 st7">e</tspan><tspan x="145.02" y="0" class="st5 st1 st7">d w</tspan><tspan x="164.92" y="0" class="st5 st1 st7">i</tspan><tspan x="168.46" y="0" class="st5 st1 st7">th </tspan><tspan x="182.88" y="0" class="st5 st1 st7">w</tspan><tspan x="192.37" y="0" class="st5 st1 st7">ar</tspan><tspan x="203.77" y="0" class="st5 st1 st7">m </tspan></text>
<text transform="matrix(1 0 0 1 73 323.3193)" class="st4"><tspan x="0" y="0" class="st5 st1 st7">wishe</tspan><tspan x="32.51" y="0" class="st5 st1 st7">s</tspan><tspan x="37.65" y="0" class="st5 st1 st7"> dur</tspan><tspan x="60.3" y="0" class="st5 st1 st7">i</tspan><tspan x="63.84" y="0" class="st5 st1 st7">ng their </tspan><tspan x="109.93" y="0" class="st5 st1 st7">s</tspan><tspan x="115.06" y="0" class="st5 st1 st7">t</tspan><tspan x="119.1" y="0" class="st5 st1 st7">a</tspan><tspan x="125.1" y="0" class="st5 st1 st7 st8">y</tspan><tspan x="130.24" y="0" class="st5 st1 st7">.</tspan><tspan x="133.25" y="0" class="st5 st1 st7"> </tspan><tspan x="135.63" y="0" class="st5 st1 st7"> </tspan></text>
<text transform="matrix(1 0 0 1 73 356.9189)" class="st4"><tspan x="0" y="0" class="st5 st1 st7">E</tspan><tspan x="7.92" y="0" class="st5 st1 st7">v</tspan><tspan x="13.89" y="0" class="st5 st1 st7">er</tspan><tspan x="25.17" y="0" class="st5 st1 st7">y</tspan><tspan x="31.7" y="0" class="st5 st1 st7"> empl</tspan><tspan x="63.06" y="0" class="st5 st1 st7">o</tspan><tspan x="69.75" y="0" class="st5 st1 st7">y</tspan><tspan x="75.92" y="0" class="st5 st1 st7">ee and cus</tspan><tspan x="133.67" y="0" class="st5 st1 st7">t</tspan><tspan x="137.56" y="0" class="st5 st1 st7">o</tspan><tspan x="144.52" y="0" class="st5 st1 st7">m</tspan><tspan x="155.9" y="0" class="st5 st1 st7">e</tspan><tspan x="162.13" y="0" class="st5 st1 st7">r b</tspan><tspan x="177.2" y="0" class="st5 st1 st7">e</tspan><tspan x="183.43" y="0" class="st5 st1 st7">c</tspan><tspan x="189.1" y="0" class="st5 st1 st7">ome</tspan><tspan x="213.69" y="0" class="st5 st1 st7">s </tspan></text>
<text transform="matrix(1 0 0 1 73 373.7188)" class="st4"><tspan x="0" y="0" class="st5 st1 st7">part </tspan><tspan x="25.49" y="0" class="st5 st1 st7">o</tspan><tspan x="32.45" y="0" class="st5 st1 st7">f </tspan><tspan x="39.19" y="0" class="st5 st1 st7">T</tspan><tspan x="47.7" y="0" class="st5 st1 st7">O</tspan><tspan x="57.29" y="0" class="st5 st1 st7">WN f</tspan><tspan x="87.41" y="0" class="st5 st1 st7">o</tspan><tspan x="94.37" y="0" class="st5 st1 st7">r not only the </tspan><tspan x="171.57" y="0" class="st5 st1 st7">e</tspan><tspan x="177.53" y="0" class="st5 st1 st7">v</tspan><tspan x="183.51" y="0" class="st5 st1 st7">en</tspan><tspan x="197.4" y="0" class="st5 st1 st7">i</tspan><tspan x="200.94" y="0" class="st5 st1 st7">n</tspan><tspan x="208.58" y="0" class="st5 st1 st7">g </tspan></text>
<text transform="matrix(1 0 0 1 73 390.5186)" class="st4"><tspan x="0" y="0" class="st5 st1 st7">b</tspan><tspan x="7.35" y="0" class="st5 st1 st7">u</tspan><tspan x="14.84" y="0" class="st5 st1 st7">t for a lifetim</tspan><tspan x="85.82" y="0" class="st5 st1 st7">e</tspan><tspan x="92.05" y="0" class="st5 st1 st7"> of mem</tspan><tspan x="137.44" y="0" class="st5 st1 st7">or</tspan><tspan x="149.42" y="0" class="st5 st1 st7">ie</tspan><tspan x="159.22" y="0" class="st5 st1 st7">s</tspan><tspan x="164.36" y="0" class="st5 st1 st7">. </tspan></text>
<rect class="st0" width="8" height="540"/>
<g>
	<defs>
		<rect id="SVGID_1_" width="720" height="540"/>
	</defs>
	<clipPath id="SVGID_2_">
		<use xlink:href="#SVGID_1_"  style="overflow:visible;"/>
	</clipPath>
	<path class="st9" d="M135.97,180.66c-6.83-1.56-11.83-7.36-21-4.85c-0.86-2.8,3.69-4.46,4.31-7.54c-1.95-5.41-7.69-7.03-9.15-12.92
		C123.75,145.01,150.12,166.28,135.97,180.66"/>
	<path class="st9" d="M191.41,162.89c3.38-0.47,9.76-1,10.23,3.23c0.75,6.78-13.36,5.7-20.99,6.46c-9.06,0.9-15.8,3.83-21,4.31
		c-5.47,0.5-10.45-0.93-10.77-3.77c-0.51-4.58,9.37-6.57,14-7C173.12,165.16,182.8,164.08,191.41,162.89"/>
	<path class="st9" d="M165.03,197.35c0.43,5.85,0.85,11.72,2.69,16.15c13.53-1,17.36-11.71,20.99-22.61
		C179.35,191.57,171.47,193.73,165.03,197.35 M187.65,218.88c-9.05,1-21.45-1.35-23.15,7c-11.04-2.96-11.48-16.52-15.07-26.92
		c1.77-4.34,2.83-9.37,6.46-11.84c2.69,0.54,4.04,2.42,6.46,3.23c10.48-4.2,37.89-12.83,39.84,2.69
		C203.53,203.76,190.03,209.7,187.65,218.88"/>
	<path class="st9" d="M170.96,265.71c-3.46,2.1-7.08,4.04-9.15,7.54c-0.08,1.34,0.85,1.67,1.08,2.69c3.17-0.42,6.25-0.93,8.61-2.15
		C170.46,270.76,173.53,266.76,170.96,265.71 M158.57,257.64c0.14,4.88,1.67,8.38,2.69,12.38c4.48-3.95,12.23-4.64,11.3-14
		C167.31,255.97,163.3,257.16,158.57,257.64 M181.18,257.1c2.02-0.31,3.58-1.08,4.31-2.69c-0.69-0.74-2.34-0.53-3.77-0.54
		C181.1,254.51,181.12,255.77,181.18,257.1 M155.34,241.49c0.6,3.71,1.65,6.96,2.69,10.23c5.04-0.71,9.43-2.06,14.53-2.69v-12.38
		C165.77,237.2,161.5,240.28,155.34,241.49 M181.18,235.03v12.38c7.47,0.98,16.7-3.08,18.3,3.77c-4.06,5.45-14.93,4.09-18.84,9.69
		c-0.5,3.62-0.67,7.58-0.54,11.84c4.11,0.2,10.47,2.04,7.53,5.92c1.62,0.72,4.12,0.55,6.46,0.54c5.78-13.42,10.42-27.98,11.31-46.3
		C197,231.14,188.45,233.84,181.18,235.03 M219.41,233.41c-0.11,11.03-3.04,20.91-6.46,31.76c-3.33,10.57-6.55,31.16-21,28.53
		c-5.71-1.04-7.67-11.39-14-12.92c-7.52-1.82-13.49,2.58-20.46,4.85c-9.51-12.38-12.01-31.77-12.38-53.3
		c3.91-0.33,5.29,1.89,8.08,2.69C169.8,230.44,205.85,218.41,219.41,233.41"/>
	<path class="st9" d="M113.36,238.8c3.01-2.74,9.25-5.1,6.46-11.84C118.12,231.01,113.86,235.35,113.36,238.8 M148.88,208.11
		c-1.55,2.54-1.82,5.36-3.77,8.61c-0.08,0.13-1.66,0.29-2.15,1.08c-0.41,0.66-0.04,2.05-0.54,2.69c-0.88,1.13-3.21,1.72-3.77,2.69
		c-0.78,1.36-0.29,3.89-1.08,5.38c-1.78,3.39-5.93,4.72-7,8.61c-0.58,2.1,0.1,4.75,0,7c-0.28,6.16-1.27,13.44-1.61,21
		c-0.52,11.47,1.74,24.22,0,33.37c-2.2,11.52-10.84,4.93-11.84-4.31c-1.51-13.86,1.97-32.25,1.61-45.22
		c-3.8,3.25-7.85,7.72-12.92,12.38c-5.98,5.49-11.05,14.66-22.07,10.76c-5.71-5.82,3.51-14.09,7.54-19.92
		c9.72-14.05,20.19-30.71,27.99-44.68c-9.05,4.41-19.76,11.82-30.15,16.69c-8.82-0.62-16.62-9.35-10.23-17.23
		c2.42-0.45,1.41,2.53,4.31,1.62c7.85-2.48,15.72-4.45,24.76-8.08c7.36-2.96,19.06-10.78,25.84-8.08
		c3.99,9.26-4.74,18.15-2.69,30.69C137.27,220.54,143,212.82,148.88,208.11"/>
</g>
<text transform="matrix(1 0 0 1 249.686 270.5981)" class="st10 st11 st12">TO</text>
<text transform="matrix(1 0 0 1 429.3857 270.5981)" class="st10 st11 st12">W</text>
<text transform="matrix(1 0 0 1 562.0811 270.5981)" class="st10 st11 st12">N</text>
<rect x="235.93" y="148" class="st10" width="1.57" height="161.39"/>
</svg>
